<?xml version="1.0" encoding="UTF-8"?>
<svg width="800" height="800" version="1.1" viewBox="0 0 800.00004 800.00001" xmlns="http://www.w3.org/2000/svg">
 <defs>
  <linearGradient id="c" x1="397.89" x2="-.996" y1="344.05" y2="791.08" gradientUnits="userSpaceOnUse">
   <stop offset="0"/>
   <stop stop-opacity="0" offset="1"/>
  </linearGradient>
  <mask id="b" maskUnits="userSpaceOnUse">
   <circle cx="400" cy="652.36" r="400" color="#000000" color-rendering="auto" fill="#fff" image-rendering="auto" shape-rendering="auto" solid-color="#000000" style="isolation:auto;mix-blend-mode:normal"/>
  </mask>
  <mask id="a" maskUnits="userSpaceOnUse">
   <circle cx="400" cy="400" r="400" color="#000000" color-rendering="auto" fill="#fff" image-rendering="auto" shape-rendering="auto" solid-color="#000000" style="isolation:auto;mix-blend-mode:normal"/>
  </mask>
 </defs>
 <g transform="translate(0 -252.36)" shape-rendering="auto">
  <circle cx="400" cy="652.36" r="400" color="#000000" color-rendering="auto" fill="#1c8adb" image-rendering="auto" solid-color="#000000" style="isolation:auto;mix-blend-mode:normal"/>
  <path transform="translate(0 252.36)" d="m401.98 154.61c-50.969-4e-3 -97.033 20.964-130.06 54.736-88.548 89.835-178.1 178.73-267.69 267.55 31.698 171.34 130.73 257.97 261.2 305.05l136.55-136.55s181.89-208.44 181.89-308.9c-7e-3 -100.45-81.436-181.88-181.89-181.89z" color="#000000" color-rendering="auto" fill="url(#c)" image-rendering="auto" mask="url(#a)" opacity=".42" solid-color="#000000" style="isolation:auto;mix-blend-mode:normal"/>
  <path d="m401.98 406.97c-100.46-7e-3 -181.9 81.427-181.91 181.89-7e-3 100.47 181.91 308.9 181.91 308.9s181.89-208.44 181.89-308.9c-0.00693-100.45-81.436-181.88-181.89-181.89zm0 11.641c94.023 5e-3 170.24 76.224 170.25 170.25-6e-3 94.023-170.25 290.03-170.25 290.03s-170.27-196-170.27-290.03c5e-3 -94.032 76.239-170.26 170.27-170.25zm0 86.508a83.75 83.75 0 0 0 -83.763 83.738 83.75 83.75 0 0 0 83.763 83.763 83.75 83.75 0 0 0 83.738 -83.763 83.75 83.75 0 0 0 -83.738 -83.738zm0 8.5527a75.201 75.201 0 0 1 75.186 75.186 75.201 75.201 0 0 1 -75.186 75.21 75.201 75.201 0 0 1 -75.21 -75.21 75.201 75.201 0 0 1 75.21 -75.186z" color="#000000" color-rendering="auto" fill="#fff" image-rendering="auto" mask="url(#b)" solid-color="#000000" style="isolation:auto;mix-blend-mode:normal"/>
 </g>
</svg>
